<svg version="1.1" id="Layer_1" xmlns="http://www.w3.org/2000/svg" xmlns:xlink="http://www.w3.org/1999/xlink" x="0px" y="0px"
	 width="100%" viewBox="0 0 512 512" enable-background="new 0 0 512 512" xml:space="preserve">
<path fill="#202020" opacity="1.000000" stroke="none" 
	d="
M283.000000,513.000000 
	C188.689560,513.000000 94.879120,513.000000 1.034338,513.000000 
	C1.034338,342.397858 1.034338,171.795731 1.034338,1.096792 
	C171.560455,1.096792 342.121002,1.096792 512.840759,1.096792 
	C512.840759,171.666550 512.840759,342.333252 512.840759,513.000000 
	C436.462372,513.000000 359.981171,513.000000 283.000000,513.000000 
M256.499512,370.249786 
	C275.471588,370.162842 294.491943,371.014923 313.236542,366.919373 
	C351.671173,358.521698 377.132721,335.854156 389.201782,298.258392 
	C394.118073,282.943848 394.692688,267.179749 394.609406,251.319778 
	C394.503693,231.190887 395.332550,210.998749 388.638855,191.486954 
	C379.309021,164.290985 361.770599,144.703003 335.172241,133.648163 
	C317.840271,126.444633 299.484039,124.506477 280.876160,124.501854 
	C227.732819,124.488640 174.589462,124.497704 121.446129,124.520599 
	C120.506805,124.521004 119.567604,124.803528 118.612579,124.956947 
	C118.612579,213.511795 118.612579,301.805634 118.612579,391.061707 
	C126.314590,384.340332 133.258469,378.178314 140.348068,372.188751 
	C141.610092,371.122528 143.476013,370.180817 145.064758,370.178131 
	C181.876190,370.116058 218.687881,370.191833 256.499512,370.249786 
z"/>
<path fill="#F7F7F7" opacity="1.000000" stroke="none" 
	d="
M255.999512,370.245911 
	C218.687881,370.191833 181.876190,370.116058 145.064758,370.178131 
	C143.476013,370.180817 141.610092,371.122528 140.348068,372.188751 
	C133.258469,378.178314 126.314590,384.340332 118.612579,391.061707 
	C118.612579,301.805634 118.612579,213.511795 118.612579,124.956947 
	C119.567604,124.803528 120.506805,124.521004 121.446129,124.520599 
	C174.589462,124.497704 227.732819,124.488640 280.876160,124.501854 
	C299.484039,124.506477 317.840271,126.444633 335.172241,133.648163 
	C361.770599,144.703003 379.309021,164.290985 388.638855,191.486954 
	C395.332550,210.998749 394.503693,231.190887 394.609406,251.319778 
	C394.692688,267.179749 394.118073,282.943848 389.201782,298.258392 
	C377.132721,335.854156 351.671173,358.521698 313.236542,366.919373 
	C294.491943,371.014923 275.471588,370.162842 255.999512,370.245911 
M145.681076,198.499863 
	C145.681076,254.699097 145.681076,310.898346 145.681076,368.455719 
	C167.457443,349.740936 188.200958,331.913788 209.935669,313.234802 
	C209.935669,323.746552 209.935669,332.655640 209.935669,341.993011 
	C227.753998,341.993011 245.214569,342.117950 262.672302,341.949890 
	C274.652405,341.834534 286.718658,342.128143 298.589722,340.818817 
	C334.470245,336.861298 358.631561,315.922241 364.260956,281.854248 
	C368.278259,257.542114 368.238312,232.625046 363.822083,208.260971 
	C359.883575,186.532532 347.325470,170.301712 327.067474,160.755737 
	C313.721130,154.466675 299.393250,152.420288 284.768372,152.399673 
	C240.115005,152.336700 195.461502,152.359482 150.808060,152.367645 
	C149.206390,152.367935 147.604736,152.565964 145.696976,152.692062 
	C145.696976,167.925583 145.696976,182.712738 145.681076,198.499863 
z"/>
<path fill="#222222" opacity="1.000000" stroke="none" 
	d="
M145.689026,197.999878 
	C145.696976,182.712738 145.696976,167.925583 145.696976,152.692062 
	C147.604736,152.565964 149.206390,152.367935 150.808060,152.367645 
	C195.461502,152.359482 240.115005,152.336700 284.768372,152.399673 
	C299.393250,152.420288 313.721130,154.466675 327.067474,160.755737 
	C347.325470,170.301712 359.883575,186.532532 363.822083,208.260971 
	C368.238312,232.625046 368.278259,257.542114 364.260956,281.854248 
	C358.631561,315.922241 334.470245,336.861298 298.589722,340.818817 
	C286.718658,342.128143 274.652405,341.834534 262.672302,341.949890 
	C245.214569,342.117950 227.753998,341.993011 209.935669,341.993011 
	C209.935669,332.655640 209.935669,323.746552 209.935669,313.234802 
	C188.200958,331.913788 167.457443,349.740936 145.681076,368.455719 
	C145.681076,310.898346 145.681076,254.699097 145.689026,197.999878 
M231.342529,287.182159 
	C248.912231,298.903137 269.359222,299.052826 286.518219,286.678772 
	C302.607483,275.076141 309.862427,258.984009 306.453522,239.235291 
	C302.958435,218.986984 290.864471,205.386642 270.908051,200.334686 
	C250.829819,195.251892 233.434433,201.223129 220.563568,217.504898 
	C203.076981,239.625580 207.622452,268.562866 231.342529,287.182159 
z"/>
<path fill="#F5F5F5" opacity="1.000000" stroke="none" 
	d="
M231.045929,286.982422 
	C207.622452,268.562866 203.076981,239.625580 220.563568,217.504898 
	C233.434433,201.223129 250.829819,195.251892 270.908051,200.334686 
	C290.864471,205.386642 302.958435,218.986984 306.453522,239.235291 
	C309.862427,258.984009 302.607483,275.076141 286.518219,286.678772 
	C269.359222,299.052826 248.912231,298.903137 231.045929,286.982422 
M271.230347,219.996109 
	C256.535339,214.778412 243.821793,218.015137 234.878662,229.250809 
	C227.092072,239.033463 226.908188,254.086563 234.445877,264.685669 
	C241.952454,275.241028 255.769775,279.812378 267.621979,275.609711 
	C279.923492,271.247803 287.334076,262.634338 288.574951,249.619614 
	C289.851959,236.226135 283.463440,226.671722 271.230347,219.996109 
z"/>
<path fill="#232323" opacity="1.000000" stroke="none" 
	d="
M271.589783,220.131927 
	C283.463440,226.671722 289.851959,236.226135 288.574951,249.619614 
	C287.334076,262.634338 279.923492,271.247803 267.621979,275.609711 
	C255.769775,279.812378 241.952454,275.241028 234.445877,264.685669 
	C226.908188,254.086563 227.092072,239.033463 234.878662,229.250809 
	C243.821793,218.015137 256.535339,214.778412 271.589783,220.131927 
z"/>
</svg>